<?xml version="1.0" encoding="iso-8859-1"?>
<!-- Generator: Adobe Illustrator 19.0.0, SVG Export Plug-In . SVG Version: 6.00 Build 0)  -->
<svg xmlns="http://www.w3.org/2000/svg" xmlns:xlink="http://www.w3.org/1999/xlink" version="1.1" id="Capa_1" x="0px" y="0px" viewBox="0 0 480 480" style="enable-background:new 0 0 480 480;" xml:space="preserve" width="512px" height="512px">
<g>
	<g>
		<path d="M460.056,209.104c-2.442-1.434-5.46-1.471-7.936-0.096l-22.016,12.232L424,7.776c-0.121-4.331-3.668-7.778-8-7.776h-56    c-4.332-0.002-7.879,3.445-8,7.776L344.544,268.8L320,282.4V216c-0.002-4.418-3.586-7.998-8.004-7.996    c-1.356,0.001-2.69,0.346-3.876,1.004L176,282.4V216c-0.002-4.418-3.586-7.998-8.004-7.996c-1.356,0.001-2.69,0.346-3.876,1.004    l-144,80c-2.541,1.409-4.119,4.086-4.12,6.992v176c0,4.418,3.582,8,8,8h432c4.418,0,8-3.582,8-8V216    C464,213.165,462.5,210.541,460.056,209.104z M367.776,16h40.448l0.464,16H367.32L367.776,16z M366.856,48h42.288l5.2,181.992    L360.8,259.728L366.856,48z M232,464h-48v-40h48V464z M296,464h-48v-40h48V464z M448,464H312v-48c0-4.418-3.582-8-8-8H176    c-4.418,0-8,3.582-8,8v48H32V300.712L160,229.6V296c0.002,4.418,3.586,7.998,8.004,7.996c1.356-0.001,2.69-0.346,3.876-1.004    L304,229.6V296c0.002,4.418,3.586,7.998,8.004,7.996c1.356-0.001,2.69-0.346,3.876-1.004l75.448-41.912L426.4,241.6l21.6-12V464z" fill="#64a8d9"/>
	</g>
</g>
<g>
	<g>
		<path d="M128,320H64c-4.418,0-8,3.582-8,8v32c0,4.418,3.582,8,8,8h64c4.418,0,8-3.582,8-8v-32C136,323.582,132.418,320,128,320z     M120,352H72v-16h48V352z" fill="#64a8d9"/>
	</g>
</g>
<g>
	<g>
		<path d="M272,320h-64c-4.418,0-8,3.582-8,8v32c0,4.418,3.582,8,8,8h64c4.418,0,8-3.582,8-8v-32C280,323.582,276.418,320,272,320z     M264,352h-48v-16h48V352z" fill="#64a8d9"/>
	</g>
</g>
<g>
	<g>
		<path d="M416,320h-64c-4.418,0-8,3.582-8,8v32c0,4.418,3.582,8,8,8h64c4.418,0,8-3.582,8-8v-32C424,323.582,420.418,320,416,320z     M408,352h-48v-16h48V352z" fill="#64a8d9"/>
	</g>
</g>
<g>
</g>
<g>
</g>
<g>
</g>
<g>
</g>
<g>
</g>
<g>
</g>
<g>
</g>
<g>
</g>
<g>
</g>
<g>
</g>
<g>
</g>
<g>
</g>
<g>
</g>
<g>
</g>
<g>
</g>
</svg>
