<?xml version="1.0" encoding="iso-8859-1"?>
<!-- Generator: Adobe Illustrator 19.0.0, SVG Export Plug-In . SVG Version: 6.00 Build 0)  -->
<svg xmlns="http://www.w3.org/2000/svg" xmlns:xlink="http://www.w3.org/1999/xlink" version="1.1" id="Capa_1" x="0px" y="0px" viewBox="0 0 480.008 480.008" style="enable-background:new 0 0 480.008 480.008;" xml:space="preserve" width="512px" height="512px">
<g>
	<g>
		<path d="M477.004,465.756l-40-32c-1.419-1.135-3.183-1.753-5-1.752h-76.256l-26.664-32h110.92c22.08-0.026,39.974-17.92,40-40    v-320c-0.026-22.08-17.92-39.974-40-40h-400c-22.08,0.026-39.974,17.92-40,40v320c0.026,22.08,17.92,39.974,40,40h110.92    l-26.664,32H48.004c-1.817-0.001-3.581,0.617-5,1.752l-40,32c-3.451,2.759-4.011,7.794-1.252,11.244    c1.519,1.899,3.82,3.005,6.252,3.004h464c4.418,0.002,8.002-3.578,8.004-7.996C480.009,469.575,478.904,467.275,477.004,465.756z     M40.004,384.004c-13.255,0-24-10.745-24-24v-320c0-13.255,10.745-24,24-24h400c13.255,0,24,10.745,24,24v320    c0,13.255-10.745,24-24,24H40.004z M171.748,400.004H308.26l26.664,32h-189.84L171.748,400.004z M30.812,464.004l20-16h378.4    l19.984,16H30.812z" fill="#5f9dc9"/>
	</g>
</g>
<g>
	<g>
		<path d="M440.004,32.004h-400c-4.418,0-8,3.582-8,8v288c0,4.418,3.582,8,8,8h400c4.418,0,8-3.582,8-8v-288    C448.004,35.586,444.422,32.004,440.004,32.004z M432.004,320.004h-384v-272h384V320.004z" fill="#5f9dc9"/>
	</g>
</g>
<g>
	<g>
		<rect x="200.004" y="352.004" width="80" height="16" fill="#5f9dc9"/>
	</g>
</g>
<g>
	<g>
		<path d="M360.004,160.004h32c4.418,0,8-3.582,8-8v-32c0-4.418-3.582-8-8-8h-32c-4.418,0-8,3.582-8,8v8h-56    c-1.911,0-3.758,0.684-5.208,1.928l-12.88,11.04l-15.056-25.088c-1.446-2.407-4.048-3.879-6.856-3.88h-72v-8c0-4.418-3.582-8-8-8    h-96c-4.418,0-8,3.582-8,8v32c0,4.418,3.582,8,8,8h96c4.418,0,8-3.582,8-8v-8h67.472l14.128,23.528l-28.56,24.472h-53.04v-8    c0-4.418-3.582-8-8-8h-96c-4.418,0-8,3.582-8,8v32c0,4.418,3.582,8,8,8h96c4.418,0,8-3.582,8-8v-8h56    c1.911,0,3.758-0.684,5.208-1.928l28.728-24.624l20.232,33.752l-41.848,48.8h-68.32v-16c0-4.418-3.582-8-8-8h-96    c-4.418,0-8,3.582-8,8v32c0,4.418,3.582,8,8,8h96c4.418,0,8-3.582,8-8h72c2.334,0,4.552-1.02,6.072-2.792l45.608-53.208h44.32v8    c0,4.418,3.582,8,8,8h32c4.418,0,8-3.582,8-8v-32c0-4.418-3.582-8-8-8h-32c-4.418,0-8,3.582-8,8v8h-43.472l-22.264-37.112    l12.696-10.888h53.04v8C352.004,156.422,355.586,160.004,360.004,160.004z M368.004,128.004h16v16h-16V128.004z M168.004,128.004    h-80v-16h80V128.004z M168.004,192.004h-80v-16h80V192.004z M168.004,256.004h-80v-16h80V256.004z M368.004,192.004h16v16h-16    V192.004z" fill="#5f9dc9"/>
	</g>
</g>
<g>
</g>
<g>
</g>
<g>
</g>
<g>
</g>
<g>
</g>
<g>
</g>
<g>
</g>
<g>
</g>
<g>
</g>
<g>
</g>
<g>
</g>
<g>
</g>
<g>
</g>
<g>
</g>
<g>
</g>
</svg>
