<?xml version="1.0" encoding="UTF-8" standalone="no"?>
<svg
   xmlns:dc="http://purl.org/dc/elements/1.1/"
   xmlns:cc="http://creativecommons.org/ns#"
   xmlns:rdf="http://www.w3.org/1999/02/22-rdf-syntax-ns#"
   xmlns:svg="http://www.w3.org/2000/svg"
   xmlns="http://www.w3.org/2000/svg"
   id="svg335"
   height="240"
   width="1440"
   xml:space="preserve"
   style="enable-background:new 0 0 1440 240;"
   viewBox="0 0 1440 240"
   y="0px"
   x="0px"
   version="1.1"><metadata
   id="metadata339"><rdf:RDF><cc:Work
       rdf:about=""><dc:format>image/svg+xml</dc:format><dc:type
         rdf:resource="http://purl.org/dc/dcmitype/StillImage" /></cc:Work></rdf:RDF></metadata>
	<style
   id="style2"
   type="text/css">
		.gradient{fill:url(#artdeco-banner-graph-gradient1);}
		.foreground{opacity:0.15;}
		.midground{opacity:0.3;}
		.background{opacity:0.5;}
		.foreground circle, .midground circle, .background circle {fill:#FFFFFF;}
		.foreground polyline, .midground polyline, .background polyline {fill:none;stroke:#FFFFFF;stroke-width:0.5;stroke-miterlimit:10;}
		.foreground polygon, .midground polygon, .background polygon {fill:none;stroke:#FFFFFF;stroke-width:0.75;stroke-miterlimit:10;}
		.foreground line, .midground line, .background line{fill:none;stroke:#FFFFFF;stroke-miterlimit:10;}
	</style>
	<defs
   id="defs9">
		<linearGradient
   y2="-67.9344"
   x2="1421.7692"
   y1="308.1425"
   x1="18.2309"
   gradientUnits="userSpaceOnUse"
   id="artdeco-banner-graph-gradient1">
			<stop
   id="stop4"
   style="stop-color:#008CC9"
   offset="0" />
			<stop
   id="stop6"
   style="stop-color:#009EA5"
   offset="1" />
		</linearGradient>
	</defs>
	<rect
   id="rect11"
   height="240"
   width="1440"
   class="gradient"
   y="0.1" />
	<g
   id="g153"
   class="foreground">
		<circle
   id="circle13"
   r="3.5"
   cy="32.5"
   cx="42" />
		<circle
   id="circle15"
   r="3.5"
   cy="41"
   cx="184.1" />
		<circle
   id="circle17"
   r="3.5"
   cy="9"
   cx="229.5" />
		<circle
   id="circle19"
   r="3.5"
   cy="37.5"
   cx="281.5" />
		<circle
   id="circle21"
   r="3.5"
   cy="105.5"
   cx="222.5" />
		<circle
   id="circle23"
   r="3.5"
   cy="149.5"
   cx="249.5" />
		<circle
   id="circle25"
   r="3.5"
   cy="136.2"
   cx="368.8" />
		<circle
   id="circle27"
   r="3.5"
   cy="178.2"
   cx="385.5" />
		<circle
   id="circle29"
   r="3.5"
   cy="171.6"
   cx="453.5" />
		<circle
   id="circle31"
   r="3.5"
   cy="71.5"
   cx="394" />
		<circle
   id="circle33"
   r="3.5"
   cy="44.5"
   cx="335" />
		<circle
   id="circle35"
   r="3.5"
   cy="43"
   cx="453.5" />
		<circle
   id="circle37"
   r="3.5"
   cy="94.5"
   cx="484" />
		<circle
   id="circle39"
   r="3.5"
   cy="148.7"
   cx="527.4" />
		<circle
   id="circle41"
   r="3.5"
   cy="194.7"
   cx="571" />
		<circle
   id="circle43"
   r="3.5"
   cy="204.7"
   cx="624" />
		<circle
   id="circle45"
   r="3.5"
   cy="78.5"
   cx="681.2" />
		<circle
   id="circle47"
   r="3.5"
   cy="82"
   cx="739.5" />
		<circle
   id="circle49"
   r="3.5"
   cy="183.1"
   cx="773" />
		<circle
   id="circle51"
   r="3.5"
   cy="209.7"
   cx="816.9" />
		<circle
   id="circle53"
   r="3.5"
   cy="33.5"
   cx="803.3" />
		<circle
   id="circle55"
   r="3.5"
   cy="55"
   cx="634" />
		<circle
   id="circle57"
   r="3.5"
   cy="11"
   cx="585.5" />
		<circle
   id="circle59"
   r="3.5"
   cy="40.3"
   cx="947.9" />
		<circle
   id="circle61"
   r="3.5"
   cy="9.9"
   cx="994.5" />
		<circle
   id="circle63"
   r="3.5"
   cy="37"
   cx="1043.5" />
		<circle
   id="circle65"
   r="3.5"
   cy="108.7"
   cx="983.3" />
		<circle
   id="circle67"
   r="3.5"
   cy="150.5"
   cx="1008.7" />
		<circle
   id="circle69"
   r="3.5"
   cy="137"
   cx="1130.5" />
		<circle
   id="circle71"
   r="3.5"
   cy="43.8"
   cx="1095" />
		<circle
   id="circle73"
   r="3.5"
   cy="202.7"
   cx="927.3" />
		<circle
   id="circle75"
   r="3.5"
   cy="214.7"
   cx="1040" />
		<circle
   id="circle77"
   r="3.5"
   cy="179"
   cx="1148" />
		<circle
   id="circle79"
   r="3.5"
   cy="169"
   cx="1215" />
		<circle
   id="circle81"
   r="3.5"
   cy="69.8"
   cx="1159.5" />
		<circle
   id="circle83"
   r="3.5"
   cy="40.5"
   cx="1215" />
		<circle
   id="circle85"
   r="3.5"
   cy="96"
   cx="1245.5" />
		<circle
   id="circle87"
   r="3.5"
   cy="147.4"
   cx="1289.5" />
		<circle
   id="circle89"
   r="3.5"
   cy="196.3"
   cx="1332.4" />
		<circle
   id="circle91"
   r="3.5"
   cy="204.4"
   cx="1384.2" />
		<circle
   id="circle93"
   r="3.5"
   cy="221.2"
   cx="493.5" />
		<polyline
   id="polyline95"
   points="12.5,-3.5 42,32.5 111,-3.5" />
		<polyline
   id="polyline97"
   points="42,32.5 184.1,41 195.5,-13" />
		<polyline
   id="polyline99"
   points="229.5,9 281.5,37.5 335,44.5 281.5,-16 281.5,37.5 249.5,149.5 222.5,105.5 229.5,9 184.1,0" />
		<line
   id="line101"
   y2="105.5"
   x2="222.5"
   y1="38.8"
   x1="282.6" />
		<line
   id="line103"
   y2="149.5"
   x2="249.5"
   y1="136.2"
   x1="369.6" />
		<polyline
   id="polyline105"
   points="333.7,43 394,71.5 368,136.5 281.5,37.5" />
		<polygon
   id="polygon107"
   points="394,71.5 453.5,43 484,94.5" />
		<line
   id="line109"
   y2="43"
   x2="453.5"
   y1="0"
   x1="459" />
		<polyline
   id="polyline111"
   points="366.2,0 394,71.5 440.8,-1.2" />
		<polyline
   id="polyline113"
   points="394,71.5 453.5,171.6 527.4,148.7 493.5,221.2 385.5,178.2 335,44.5" />
		<line
   id="line115"
   y2="176.9"
   x2="385"
   y1="172.8"
   x1="453.5" />
		<line
   id="line117"
   y2="136.2"
   x2="368.8"
   y1="171.6"
   x1="453.5" />
		<polyline
   id="polyline119"
   points="571,240 624,204.7 646.5,242.8" />
		<polyline
   id="polyline121"
   points="624,204.7 731.2,228.5 773,182 816.9,208.5 816.9,240" />
		<path
   id="path123"
   d="M816.9,213.2" />
		<polyline
   id="polyline125"
   points="681.2,77.2 739.5,82 772,183.1 681.2,78.5 624,204.7 571,194.7 493.5,221.2" />
		<line
   id="line127"
   y2="83.2"
   x2="739.5"
   y1="111.2"
   x1="780.5" />
		<polyline
   id="polyline129"
   points="630.5,-2.5 634,55 585.5,11 592.5,-7.5" />
		<line
   id="line131"
   y2="-5"
   x2="760"
   y1="55"
   x1="634" />
		<polyline
   id="polyline133"
   points="769.5,-7.5 803.3,33.5 885.5,-5" />
		<polyline
   id="polyline135"
   points="803.3,33.5 947.9,40.3 951.4,0 994.5,9.9 1043.5,37 1043.5,-14.5" />
		<polyline
   id="polyline137"
   points="1032.5,-14.5 1095,43.8 1043.5,37 1130.5,137 1008.7,150.5 983.3,108.7 994.5,9.9" />
		<polyline
   id="polyline139"
   points="983.3,108.7 1043.5,37 1008.7,150.5" />
		<polyline
   id="polyline141"
   points="1130.5,-5 1159.5,69.8 1130.5,137 1148,179 1218.5,169 1159.5,69.8 1249,96" />
		<polyline
   id="polyline143"
   points="1095,43.8 1159.5,69.8 1215,40.5 1245.5,99.5" />
		<line
   id="line145"
   y2="-5"
   x2="1222.5"
   y1="40.5"
   x1="1215" />
		<polyline
   id="polyline147"
   points="1215,169 1289.5,147.4 1252.2,222 1148,182.5" />
		<polyline
   id="polyline149"
   points="1440,76.5 1384.2,200.9 1332.4,196.3 1308.5,240" />
		<polyline
   id="polyline151"
   points="1323.5,240.4 1384.2,207.9 1417.5,247.5" />
	</g>
	<g
   id="g177"
   class="midground">
		<circle
   id="circle155"
   r="6"
   cy="173.2"
   cx="61.6" />
		<circle
   id="circle157"
   r="6"
   cy="94.5"
   cx="180.6" />
		<circle
   id="circle159"
   r="6"
   cy="231.9"
   cx="159.2" />
		<circle
   id="circle161"
   r="6"
   cy="161.6"
   cx="284" />
		<circle
   id="circle163"
   r="6"
   cy="201.7"
   cx="379.5" />
		<circle
   id="circle165"
   r="6"
   cy="168.2"
   cx="508.3" />
		<polyline
   id="polyline167"
   points="94.9,240 61.6,173.2 180.6,94.5 159.2,232 180.9,240.1" />
		<polyline
   id="polyline169"
   points="313.6,240.4 284,161.6 341.5,189.7 323.4,240" />
		<polyline
   id="polyline171"
   points="341.5,189.7 379.5,204.1 366.5,240" />
		<polyline
   id="polyline173"
   points="379.5,204.1 508.3,168.2 423.5,240.4" />
		<line
   id="line175"
   y2="240.5"
   x2="548.4"
   y1="168.2"
   x1="508.3" />
	</g>
	<g
   id="g333"
   class="background">
		<circle
   id="circle179"
   r="5"
   cy="40.3"
   cx="922.3" />
		<circle
   id="circle181"
   r="5"
   cy="108.7"
   cx="1033" />
		<circle
   id="circle183"
   r="5"
   cy="60"
   cx="1095" />
		<circle
   id="circle185"
   r="5"
   cy="1.4"
   cx="1186.5" />
		<circle
   id="circle187"
   r="5"
   cy="96"
   cx="1149.5" />
		<circle
   id="circle189"
   r="5"
   cy="154.5"
   cx="1172" />
		<circle
   id="circle191"
   r="5"
   cy="145.5"
   cx="1240.5" />
		<circle
   id="circle193"
   r="5"
   cy="137"
   cx="1308.2" />
		<circle
   id="circle195"
   r="5"
   cy="59"
   cx="1303.2" />
		<circle
   id="circle197"
   r="5"
   cy="43.5"
   cx="1363.7" />
		<circle
   id="circle199"
   r="5"
   cy="0.4"
   cx="1414" />
		<circle
   id="circle201"
   r="5"
   cy="114"
   cx="1425.5" />
		<circle
   id="circle203"
   r="5"
   cy="160.5"
   cx="1384.2" />
		<circle
   id="circle205"
   r="5"
   cy="226"
   cx="1289.5" />
		<circle
   id="circle207"
   r="3"
   cy="217"
   cx="1380.2" />
		<circle
   id="circle209"
   r="3"
   cy="199.3"
   cx="1425.5" />
		<circle
   id="circle211"
   r="3"
   cy="74"
   cx="1420.5" />
		<circle
   id="circle213"
   r="3"
   cy="211.7"
   cx="685.5" />
		<circle
   id="circle215"
   r="3"
   cy="237"
   cx="490.5" />
		<circle
   id="circle217"
   r="3"
   cy="186.1"
   cx="397" />
		<circle
   id="circle219"
   r="3"
   cy="189.7"
   cx="341.5" />
		<circle
   id="circle221"
   r="5"
   cy="179"
   cx="1021.7" />
		<circle
   id="circle223"
   r="5"
   cy="204.7"
   cx="862" />
		<circle
   id="circle225"
   r="5"
   cy="153.7"
   cx="816.9" />
		<circle
   id="circle227"
   r="5"
   cy="113.2"
   cx="779.5" />
		<circle
   id="circle229"
   r="5"
   cy="181.1"
   cx="717" />
		<circle
   id="circle231"
   r="5"
   cy="225"
   cx="414.5" />
		<circle
   id="circle233"
   r="5"
   cy="240.4"
   cx="289" />
		<circle
   id="circle235"
   r="5"
   cy="89.5"
   cx="262.5" />
		<circle
   id="circle237"
   r="5"
   cy="32.5"
   cx="206" />
		<circle
   id="circle239"
   r="5"
   cy="221.5"
   cx="200" />
		<circle
   id="circle241"
   r="5"
   cy="199.7"
   cx="101.5" />
		<circle
   id="circle243"
   r="5"
   cy="209.7"
   cx="14" />
		<circle
   id="circle245"
   r="5"
   cy="100.5"
   cx="29.5" />
		<circle
   id="circle247"
   r="5"
   cy="194.7"
   cx="666" />
		<circle
   id="circle249"
   r="5"
   cy="214.7"
   cx="734.5" />
		<line
   id="line251"
   y2="137"
   x2="1308.2"
   y1="64"
   x1="1440" />
		<line
   id="line253"
   y2="137"
   x2="1308.2"
   y1="43.5"
   x1="1363.7" />
		<line
   id="line255"
   y2="137"
   x2="1308.2"
   y1="59"
   x1="1303.2" />
		<line
   id="line257"
   y2="226"
   x2="1289.5"
   y1="137"
   x1="1308.2" />
		<line
   id="line259"
   y2="210.3"
   x2="1191.7"
   y1="137"
   x1="1308.2" />
		<line
   id="line261"
   y2="155.5"
   x2="1173"
   y1="137"
   x1="1308.2" />
		<line
   id="line263"
   y2="210.3"
   x2="1191.7"
   y1="59"
   x1="1303.2" />
		<line
   id="line265"
   y2="240.2"
   x2="1269"
   y1="160.5"
   x1="1384.2" />
		<line
   id="line267"
   y2="160.5"
   x2="1384.2"
   y1="160.5"
   x1="1440" />
		<line
   id="line269"
   y2="160.5"
   x2="1384.2"
   y1="217"
   x1="1380.2" />
		<line
   id="line271"
   y2="217"
   x2="1380.2"
   y1="199.3"
   x1="1425.5" />
		<line
   id="line273"
   y2="239.8"
   x2="1405.8"
   y1="200.7"
   x1="1425.5" />
		<line
   id="line275"
   y2="206"
   x2="1439.8"
   y1="199.3"
   x1="1425.5" />
		<line
   id="line277"
   y2="160.5"
   x2="1384.2"
   y1="43.5"
   x1="1363.7" />
		<line
   id="line279"
   y2="114"
   x2="1425.5"
   y1="43.5"
   x1="1363.7" />
		<line
   id="line281"
   y2="43.5"
   x2="1363.7"
   y1="0"
   x1="1334.4" />
		<line
   id="line283"
   y2="59"
   x2="1303.2"
   y1="-1.4"
   x1="1316" />
		<line
   id="line285"
   y2="96"
   x2="1149.5"
   y1="43.7"
   x1="1363.7" />
		<line
   id="line287"
   y2="114"
   x2="1425.5"
   y1="0"
   x1="1414" />
		<line
   id="line289"
   y2="74"
   x2="1421.5"
   y1="81.8"
   x1="1440" />
		<line
   id="line291"
   y2="111.7"
   x2="1423.5"
   y1="127.3"
   x1="1440.4" />
		<polyline
   id="polyline293"
   points="1414,0.4 1363.7,43.5 1186.5,1.4 1095,60 1149.5,94 1191.7,210.3 1368.9,240.1" />
		<polyline
   id="polyline295"
   points="1173,155.5 1021.7,179 1149.5,96 1187,1.7 1303.7,59" />
		<line
   id="line297"
   y2="240.4"
   x2="1122"
   y1="179"
   x1="1021.7" />
		<polyline
   id="polyline299"
   points="1156.4,240.4 1191.7,210.3 1189.1,240.4" />
		<line
   id="line301"
   y2="240.9"
   x2="956.9"
   y1="177.3"
   x1="1022.7" />
		<line
   id="line303"
   y2="96"
   x2="1149.5"
   y1="109.7"
   x1="1031.2" />
		<polyline
   id="polyline305"
   points="1034,108.7 922.3,40.3 1095,60" />
		<polyline
   id="polyline307"
   points="772,240.6 816.9,153.7 779.5,113.7 685.5,211.7" />
		<polyline
   id="polyline309"
   points="826.7,240 862,204.7 816.9,153.7 922.3,40.3 862,204.7 1033,108.7 1020.9,179 862,204.7 1071.8,240.4" />
		<polyline
   id="polyline311"
   points="803.3,240.4 734.5,214.7 705.3,240.5" />
		<line
   id="line313"
   y2="194.7"
   x2="666"
   y1="240"
   x1="717.7" />
		<line
   id="line315"
   y2="240.4"
   x2="678.7"
   y1="194.7"
   x1="666.4" />
		<line
   id="line317"
   y2="153.7"
   x2="816.9"
   y1="194.7"
   x1="666.4" />
		<polyline
   id="polyline319"
   points="779.5,113.7 490.5,237 397,186.1 341.5,189.7 397.2,240.1" />
		<polyline
   id="polyline321"
   points="424.3,240.1 414.5,225 289,240.4 262.5,89.5 716.4,181.1" />
		<polyline
   id="polyline323"
   points="206,32.5 29.5,100.5 200,221.5 206,32.5 262.5,89.5 200,221.5 289,240.4" />
		<polyline
   id="polyline325"
   points="177,240.4 200,221.5 101.5,199.7 29.5,100.5 14,209.7 36.4,240.4" />
		<line
   id="line327"
   y2="240.1"
   x2="3.3"
   y1="209.7"
   x1="14" />
		<polyline
   id="polyline329"
   points="94.9,240 101.5,199.7 19,209.7" />
		<polyline
   id="polyline331"
   points="0,95.5 29.5,100.5 0,56" />
	</g>
</svg>