<?xml version="1.0" encoding="iso-8859-1"?>
<!-- Generator: Adobe Illustrator 16.0.0, SVG Export Plug-In . SVG Version: 6.00 Build 0)  -->
<!DOCTYPE svg PUBLIC "-//W3C//DTD SVG 1.1//EN" "http://www.w3.org/Graphics/SVG/1.1/DTD/svg11.dtd">
<svg version="1.1" id="Capa_1" xmlns="http://www.w3.org/2000/svg" xmlns:xlink="http://www.w3.org/1999/xlink" x="0px" y="0px"
	 width="563.234px" height="563.234px" viewBox="0 0 563.234 563.234" style="enable-background:new 0 0 563.234 563.234;"
	 xml:space="preserve">
<g>
	<g>
		<path d="M416.16,335.148v123.949H61.2v-354.96h354.96v40.6l0.275-0.275l0.514-0.514l12.981-12.98l16.823-16.824l28.587-28.586
			c-6.561-24.504-28.893-42.62-55.429-42.62H57.449C25.771,42.938,0,68.709,0,100.386V462.85c0,31.676,25.771,57.447,57.449,57.447
			h362.463c31.677,0,57.448-25.771,57.448-57.447v-188.9l-30.601,30.6L416.16,335.148z"/>
		<polygon points="446.76,174.787 429.422,157.443 416.16,170.705 233.674,353.191 223.294,432.812 302.916,422.434 416.16,309.182 
			446.76,278.582 477.36,247.982 498.658,226.685 477.36,205.387 		"/>
		<path d="M507.825,96.353c-2.325-2.332-5.397-3.488-8.513-3.488c-3.274,0-6.598,1.285-9.144,3.831l-12.809,12.809l-30.601,30.6
			l-3.843,3.843l3.843,3.843l30.601,30.6l34.798,34.798l47.247-47.247c4.969-4.969,5.122-12.876,0.343-17.656L507.825,96.353z"/>
	</g>
</g>
<g>
</g>
<g>
</g>
<g>
</g>
<g>
</g>
<g>
</g>
<g>
</g>
<g>
</g>
<g>
</g>
<g>
</g>
<g>
</g>
<g>
</g>
<g>
</g>
<g>
</g>
<g>
</g>
<g>
</g>
</svg>
