<?xml version="1.0" encoding="iso-8859-1"?>
<!-- Generator: Adobe Illustrator 19.0.0, SVG Export Plug-In . SVG Version: 6.00 Build 0)  -->
<svg xmlns="http://www.w3.org/2000/svg" xmlns:xlink="http://www.w3.org/1999/xlink" version="1.1" id="Capa_1" x="0px" y="0px" viewBox="0 0 512 512" style="enable-background:new 0 0 512 512;" xml:space="preserve" width="512px" height="512px">
<g>
	<g>
		<path d="M512,50c0-16.542-13.458-30-30-30H30C13.458,20,0,33.458,0,50v219c0,0.049,0.007,0.096,0.007,0.145    C0.006,269.242,0,269.338,0,269.435v70.456c0,20.641,3.131,41.091,9.307,60.783l11.32,36.098V482c0,5.522,4.478,10,10,10    c5.522,0,10-4.478,10-10v-46.76c0-1.015-0.154-2.023-0.458-2.992l-11.778-37.559C22.823,376.936,20,358.499,20,339.891v-70.456    c0-5.557,4.521-10.077,10.077-10.077c5.556,0,10.077,4.521,10.077,10.077v24.506c0,5.522,4.478,10,10,10c5.522,0,10-4.478,10-10    V254.64c0-5.557,4.521-10.077,10.078-10.077s10.077,4.521,10.077,10.077v39.301c0,5.522,4.478,10,10,10c5.522,0,10-4.478,10-10    v-52.018c0-5.557,4.521-10.077,10.077-10.077c5.556,0,10.077,4.521,10.077,10.077v52.018c0,5.522,4.478,10,10,10    c5.522,0,10-4.478,10-10V176.262c0-5.557,4.521-10.077,10.077-10.077c5.556,0,10.078,4.521,10.078,10.077v145.385    c0,4.579,3.11,8.573,7.55,9.695c4.436,1.12,9.073-0.914,11.249-4.943l23.578-43.662c2.896-5.36,9.422-7.411,14.861-4.667    c4.654,2.349,7.052,7.527,5.829,12.595L208.4,354.026c-3.003,12.446-8.355,23.998-15.91,34.335l-29.945,40.979    c-1.251,1.713-1.926,3.779-1.926,5.9V482c0,5.522,4.478,10,10,10c5.522,0,10-4.478,10-10v-43.495l28.019-38.343    c9.119-12.478,15.581-26.422,19.204-41.445L236.7,322h38.6l8.857,36.716c3.624,15.024,10.086,28.969,19.204,41.446l28.02,38.343    V482c0,5.522,4.478,10,10,10c5.522,0,10-4.478,10-10v-46.76c0-2.121-0.675-4.188-1.926-5.9l-29.946-40.979    c-7.554-10.337-12.906-21.889-15.909-34.336l-15.286-63.361c-1.223-5.067,1.175-10.246,5.828-12.594    c5.437-2.743,11.967-0.693,14.862,4.666l23.578,43.662c2.176,4.03,6.82,6.063,11.249,4.943c4.439-1.122,7.55-5.116,7.55-9.695    V176.262c0-5.557,4.521-10.077,10.078-10.077s10.077,4.521,10.077,10.077V293.94c0,5.522,4.478,10,10,10c5.522,0,10-4.478,10-10    v-52.018c0-5.557,4.521-10.077,10.077-10.077c5.556,0,10.077,4.521,10.077,10.077v52.018c0,5.522,4.478,10,10,10    c5.522,0,10-4.478,10-10v-39.3c0-5.557,4.521-10.077,10.077-10.077c5.556,0,10.078,4.521,10.078,10.077v39.301    c0,5.522,4.478,10,10,10c5.522,0,10-4.478,10-10v-24.506c0-5.557,4.521-10.077,10.077-10.077c5.556,0,10.078,4.52,10.078,10.077    v70.456c0,18.608-2.823,37.045-8.391,54.799l-11.778,37.559c-0.304,0.969-0.458,1.978-0.458,2.992V482c0,5.522,4.478,10,10,10    c5.522,0,10-4.478,10-10v-45.229l11.32-36.098C508.869,380.981,512,360.53,512,339.89v-70.456c0-0.097-0.006-0.193-0.007-0.289    c0-0.049,0.007-0.096,0.007-0.145V50z M268.872,295.355l1.603,6.645h-28.95l1.603-6.645c2.858-11.843-1.373-23.903-10.454-31.358    h46.652C270.246,271.452,266.014,283.512,268.872,295.355z M491.999,241.099c-3.151-1.124-6.542-1.742-10.076-1.742    c-4.563,0-8.892,1.021-12.77,2.847c-4.74-10.397-15.232-17.642-27.386-17.642c-4.891,0-9.51,1.173-13.596,3.252    c-5.063-9.492-15.069-15.969-26.559-15.969c-3.533,0-6.926,0.612-10.077,1.736v-37.32c0-16.585-13.492-30.077-30.077-30.077    c-16.585,0-30.078,13.492-30.078,30.077v105.821l-4.779-8.851c-4.544-8.413-12.296-13.904-20.911-15.734    c0.409-1.091,0.643-2.267,0.643-3.501c0-5.522-4.478-10-10-10H227c-5.522,0-10,4.478-10,10c0,1.124,0.194,2.201,0.536,3.209    c-12.703-1.992-25.67,4.051-32.138,16.026l-4.779,8.851v-105.82c0-16.585-13.493-30.077-30.078-30.077    c-16.585,0-30.077,13.492-30.077,30.077v37.32c-3.151-1.124-6.544-1.736-10.077-1.736c-11.489,0-21.495,6.477-26.559,15.969    c-4.086-2.079-8.705-3.252-13.596-3.252c-12.153,0-22.646,7.244-27.386,17.642c-3.878-1.826-8.206-2.847-12.77-2.847    c-3.534,0-6.925,0.617-10.077,1.742V50c0-5.514,4.486-10,10-10h452c5.514,0,10,4.486,10,10V241.099z" fill="#378ecc"/>
	</g>
</g>
<g>
	<g>
		<path d="M107,132.003H64c-5.522,0-10,4.478-10,10c0,5.522,4.478,10,10,10h43c5.522,0,10-4.478,10-10    C117,136.481,112.522,132.003,107,132.003z" fill="#378ecc"/>
	</g>
</g>
<g>
	<g>
		<path d="M207.261,132.003h-15.839c-5.522,0-10,4.478-10,10c0,5.522,4.478,10,10,10h15.839c5.522,0,10-4.478,10-10    S212.783,132.003,207.261,132.003z" fill="#378ecc"/>
	</g>
</g>
<g>
	<g>
		<path d="M81.275,188H64c-5.522,0-10,4.478-10,10c0,5.522,4.478,10,10,10h17.275c5.522,0,10-4.478,10-10    C91.275,192.478,86.797,188,81.275,188z" fill="#378ecc"/>
	</g>
</g>
<g>
	<g>
		<path d="M233.973,188h-18.615c-5.522,0-10,4.478-10,10c0,5.522,4.478,10,10,10h18.615c5.522,0,10-4.478,10-10    C243.973,192.478,239.495,188,233.973,188z" fill="#378ecc"/>
	</g>
</g>
<g>
	<g>
		<path d="M98.552,76.005H64c-5.522,0-10,4.478-10,10c0,5.522,4.478,10,10,10h34.552c5.522,0,10-4.478,10-10    C108.552,80.483,104.074,76.005,98.552,76.005z" fill="#378ecc"/>
	</g>
</g>
<g>
	<g>
		<path d="M207.261,76.005h-31.679c-5.522,0-10,4.478-10,10c0,5.522,4.478,10,10,10h31.679c5.522,0,10-4.478,10-10    C217.261,80.483,212.783,76.005,207.261,76.005z" fill="#378ecc"/>
	</g>
</g>
<g>
	<g>
		<path d="M144.66,78.93c-1.86-1.86-4.431-2.92-7.07-2.92c-2.63,0-5.21,1.06-7.07,2.92c-1.859,1.86-2.93,4.44-2.93,7.07    c0,2.64,1.07,5.21,2.93,7.08c1.86,1.859,4.44,2.92,7.07,2.92s5.21-1.061,7.07-2.92c1.859-1.87,2.93-4.44,2.93-7.08    C147.59,83.37,146.52,80.79,144.66,78.93z" fill="#378ecc"/>
	</g>
</g>
<g>
	<g>
		<path d="M269.999,132.003H243.5c-5.522,0-10,4.477-10,10c0,5.522,4.478,10,10,10h26.499c5.522,0,10-4.478,10-10    C279.999,136.481,275.521,132.003,269.999,132.003z" fill="#378ecc"/>
	</g>
</g>
<g>
	<g>
		<path d="M324.569,134.93c-1.859-1.86-4.439-2.93-7.069-2.93s-5.21,1.069-7.07,2.93c-1.86,1.861-2.93,4.44-2.93,7.07    c0,2.64,1.069,5.21,2.93,7.069c1.86,1.87,4.44,2.931,7.07,2.931s5.21-1.061,7.069-2.931c1.86-1.859,2.931-4.439,2.931-7.069    S326.43,136.79,324.569,134.93z" fill="#378ecc"/>
	</g>
</g>
<g>
	<g>
		<path d="M448.345,132.003h-37.634c-5.523,0-10,4.477-10,10c0,5.522,4.478,10,10,10h37.634c5.522,0,10-4.478,10-10    C458.345,136.481,453.867,132.003,448.345,132.003z" fill="#378ecc"/>
	</g>
</g>
<g>
	<g>
		<path d="M305,188h-20.167c-5.522,0-10,4.478-10,10c0,5.522,4.478,10,10,10H305c5.522,0,10-4.478,10-10    C315,192.478,310.522,188,305,188z" fill="#378ecc"/>
	</g>
</g>
<g>
	<g>
		<path d="M446.394,188h-18.615c-5.522,0-10,4.478-10,10c0,5.522,4.478,10,10,10h18.615c5.522,0,10-4.478,10-10    C456.394,192.478,451.916,188,446.394,188z" fill="#378ecc"/>
	</g>
</g>
<g>
	<g>
		<path d="M282.499,76.005H256c-5.522,0-10,4.478-10,10c0,5.522,4.478,10,10,10h26.499c5.522,0,10-4.478,10-10    C292.499,80.483,288.021,76.005,282.499,76.005z" fill="#378ecc"/>
	</g>
</g>
<g>
	<g>
		<path d="M448.127,76.005h-33.103c-5.522,0-10,4.478-10,10c0,5.522,4.478,10,10,10h33.103c5.522,0,10-4.478,10-10    C458.127,80.483,453.649,76.005,448.127,76.005z" fill="#378ecc"/>
	</g>
</g>
<g>
	<g>
		<path d="M363.5,76.005h-21.908c-5.522,0-10,4.478-10,10c0,5.522,4.478,10,10,10H363.5c5.522,0,10-4.478,10-10    C373.5,80.483,369.022,76.005,363.5,76.005z" fill="#378ecc"/>
	</g>
</g>
<g>
</g>
<g>
</g>
<g>
</g>
<g>
</g>
<g>
</g>
<g>
</g>
<g>
</g>
<g>
</g>
<g>
</g>
<g>
</g>
<g>
</g>
<g>
</g>
<g>
</g>
<g>
</g>
<g>
</g>
</svg>
