<?xml version="1.0" encoding="utf-8"?>
<!-- Svg Vector Icons : http://www.onlinewebfonts.com/icon -->
<!DOCTYPE svg PUBLIC "-//W3C//DTD SVG 1.1//EN" "http://www.w3.org/Graphics/SVG/1.1/DTD/svg11.dtd">
<svg version="1.1" xmlns="http://www.w3.org/2000/svg" xmlns:xlink="http://www.w3.org/1999/xlink" x="0px" y="0px" viewBox="0 0 1000 1000" enable-background="new 0 0 1000 1000" xml:space="preserve">
<metadata> Svg Vector Icons : http://www.onlinewebfonts.com/icon </metadata>
<g><path d="M500,9.6C229.4,9.6,10,229.1,10,500c0,80.1,19.2,155.6,53.2,222.4c1.6,4.7,3.9,9.1,6.9,13c0.2,0.3,0.4,0.7,0.6,1l0.1-0.1c8.2,10.1,20.7,16.6,34.7,16.6c24.6,0,44.5-20,44.5-44.6l-0.4-4.1c0-12.9-5.5-24.5-14.2-32.6l0.7-0.7c-24.6-52-38.3-110.2-38.3-171.5c0-222,179.8-401.9,401.6-401.9s401.6,180,401.6,401.9c0,222-179.8,401.9-401.6,401.9c-87.4,0-168.3-28-234.2-75.4c-8.2-9.9-20.5-16.3-34.4-16.3c-24.6,0-44.5,20-44.5,44.6l0.4,4.1c0,19.8,13,36.7,30.9,42.4c79.8,56.5,177.3,89.7,282.5,89.7c270.6,0,490-219.6,490-490.4C990,229.1,770.6,9.6,500,9.6z M500.5,188.3c-24.6,0-44.5,20-44.5,44.6l-0.4,259.5c-0.4,2.5-0.7,5.1-0.7,7.7c0,5.2,0.9,10.2,2.5,14.8c5.5,18.4,22.5,31.8,42.7,31.8c4.6,0,9.1-0.7,13.3-2l255,0.4c24.6,0,44.5-20,44.5-44.6c0-24.6-19.9-44.6-44.5-44.6l-223.7-0.3l0.3-222.7C545,208.3,525.1,188.3,500.5,188.3z"/></g>
</svg>