<?xml version="1.0" encoding="iso-8859-1"?>
<!-- Generator: Adobe Illustrator 16.0.0, SVG Export Plug-In . SVG Version: 6.00 Build 0)  -->
<!DOCTYPE svg PUBLIC "-//W3C//DTD SVG 1.1//EN" "http://www.w3.org/Graphics/SVG/1.1/DTD/svg11.dtd">
<svg xmlns="http://www.w3.org/2000/svg" xmlns:xlink="http://www.w3.org/1999/xlink" version="1.1" id="Capa_1" x="0px" y="0px" width="512px" height="512px" viewBox="0 0 76.652 76.652" style="enable-background:new 0 0 76.652 76.652;" xml:space="preserve">
<g>
	<g id="Zoom_2_">
		<g>
			<path d="M75.549,68.735L58.189,52.06c4.267-5.283,6.814-11.907,6.814-19.097c0-17.216-14.58-31.221-32.504-31.221     C14.58,1.741,0,15.746,0,32.963s14.58,31.223,32.5,31.223c7.73,0,14.835-2.609,20.42-6.954l17.301,16.618     c0.732,0.707,1.699,1.061,2.662,1.061c0.967,0,1.93-0.354,2.666-1.061C77.02,72.435,77.02,70.149,75.549,68.735z M7.536,32.963     c0-13.223,11.2-23.979,24.964-23.979c13.768,0,24.968,10.756,24.968,23.979S46.268,56.949,32.5,56.949     C18.736,56.949,7.536,46.185,7.536,32.963z" fill="#a2a7ab"/>
		</g>
	</g>
</g>
<g>
</g>
<g>
</g>
<g>
</g>
<g>
</g>
<g>
</g>
<g>
</g>
<g>
</g>
<g>
</g>
<g>
</g>
<g>
</g>
<g>
</g>
<g>
</g>
<g>
</g>
<g>
</g>
<g>
</g>
</svg>
